<?xml version="1.0" encoding="utf-8"?>
<svg viewBox="38.451 46.154 62.606 12.473" fill="none" xmlns="http://www.w3.org/2000/svg">
  <defs>
    <clipPath id="clip0_652_254">
      <rect width="150" height="68" fill="white"/>
    </clipPath>
  </defs>
  <g clip-path="url(#clip0_652_254)" style="" transform="matrix(0.5414800047874451, 0, 0, 0.3522280156612396, 28.90106244237813, 38.35185298847932)">
    <path d="M 25.224 56.505 L 22.419 56.558 L 22.128 27.588 L 24.933 27.535 L 25.057 39.909 L 35.246 39.716 L 35.122 27.343 L 37.928 27.29 L 38.217 56.259 L 35.412 56.312 L 35.28 43.11 L 25.092 43.302 L 25.224 56.505 Z" fill="#ffffff" style=""/>
    <path d="M 60.353 53.382 L 61.516 50.398 C 61.823 50.712 62.155 50.983 62.506 51.211 C 62.829 51.424 63.183 51.613 63.566 51.781 C 63.57 51.783 63.573 51.784 63.576 51.785 C 64.403 52.146 65.283 52.316 66.221 52.293 C 66.543 52.289 66.865 52.258 67.185 52.205 C 67.848 52.094 68.384 51.877 68.789 51.554 C 68.812 51.536 68.835 51.521 68.858 51.501 C 69.033 51.354 69.193 51.179 69.332 50.98 C 69.599 50.601 69.742 50.11 69.734 49.608 C 69.733 49.321 69.697 49.037 69.628 48.764 C 69.573 48.549 69.493 48.344 69.394 48.159 C 69.172 47.743 68.767 47.339 68.181 46.947 C 67.65 46.591 66.908 46.214 65.952 45.817 C 65.848 45.774 65.744 45.73 65.638 45.688 C 65.171 45.5 64.709 45.283 64.258 45.035 C 63.816 44.791 63.419 44.529 63.067 44.251 C 62.758 44.011 62.467 43.736 62.196 43.427 C 61.664 42.805 61.297 41.989 61.15 41.091 C 61.07 40.633 61.028 40.164 61.028 39.693 C 61.01 38.342 61.45 37.042 62.234 36.112 C 62.361 35.952 62.496 35.798 62.637 35.655 C 63.195 35.092 63.832 34.671 64.514 34.41 C 65.286 34.101 66.172 33.935 67.173 33.911 C 68.196 33.886 69.111 33.997 69.916 34.243 C 69.93 34.248 69.945 34.253 69.958 34.256 C 70.397 34.394 70.83 34.56 71.254 34.759 C 71.56 34.901 71.86 35.065 72.153 35.247 L 71.396 38.18 C 71.027 37.919 70.642 37.695 70.242 37.514 C 69.987 37.395 69.727 37.292 69.464 37.203 C 69.006 37.05 68.535 36.95 68.06 36.904 C 67.732 36.872 67.402 36.858 67.07 36.867 C 65.987 36.894 65.166 37.191 64.606 37.755 C 64.453 37.908 64.313 38.079 64.186 38.266 C 64.042 38.485 63.935 38.71 63.868 38.94 C 63.806 39.148 63.775 39.366 63.778 39.587 C 63.779 40.114 63.953 40.615 64.256 40.976 C 64.318 41.05 64.379 41.121 64.446 41.187 C 64.575 41.311 64.713 41.422 64.856 41.519 C 65.332 41.847 66.032 42.195 66.958 42.558 C 66.979 42.564 67 42.573 67.022 42.582 C 69.091 43.397 70.536 44.321 71.357 45.351 C 72.123 46.309 72.566 47.601 72.6 48.966 C 72.604 49.064 72.607 49.163 72.607 49.262 C 72.621 51.033 72.085 52.46 70.999 53.539 C 70.958 53.578 70.915 53.619 70.875 53.658 C 70.275 54.207 69.602 54.621 68.89 54.877 C 68.086 55.18 67.173 55.343 66.152 55.368 C 64.922 55.397 63.811 55.226 62.818 54.858 C 62.408 54.707 62.004 54.521 61.613 54.302 C 61.139 54.033 60.719 53.726 60.353 53.382 Z" fill="#ffffff" style=""/>
    <path d="M 105.067 38.029 L 105.051 36.601 L 107.686 36.554 L 107.827 49.948 C 107.829 50.134 107.841 50.32 107.866 50.504 C 107.943 51.055 108.135 51.427 108.44 51.621 C 108.839 51.874 109.274 51.997 109.745 51.988 L 109.161 54.379 C 108.699 54.392 108.238 54.346 107.788 54.242 C 106.538 53.937 105.743 53.121 105.407 51.795 C 105.119 52.224 104.787 52.621 104.419 52.975 C 104.105 53.282 103.771 53.562 103.42 53.818 C 102.939 54.166 102.402 54.417 101.836 54.561 C 101.406 54.677 100.938 54.744 100.434 54.769 C 100.357 54.773 100.279 54.775 100.201 54.777 C 98.809 54.801 97.542 54.449 96.4 53.723 C 95.422 53.094 94.598 52.232 93.991 51.207 C 93.87 51.006 93.757 50.802 93.651 50.593 C 93.23 49.751 92.936 48.846 92.777 47.907 C 92.657 47.201 92.593 46.485 92.588 45.766 C 92.572 44.819 92.67 43.872 92.879 42.95 C 93.033 42.272 93.259 41.614 93.549 40.99 C 94.209 39.572 95.129 38.44 96.309 37.591 C 97.373 36.83 98.61 36.386 99.891 36.301 C 100.057 36.287 100.224 36.281 100.391 36.277 C 100.907 36.265 101.424 36.312 101.932 36.416 C 102.302 36.494 102.664 36.608 103.013 36.757 C 103.497 36.964 103.96 37.216 104.399 37.512 C 104.629 37.67 104.854 37.844 105.067 38.029 Z M 104.934 49.761 L 104.834 40.278 C 104.251 39.858 103.609 39.524 102.91 39.275 C 102.214 39.027 101.478 38.909 100.706 38.923 C 100.166 38.928 99.627 39.025 99.115 39.208 C 98.719 39.352 98.344 39.552 98.002 39.805 C 97.344 40.292 96.799 40.933 96.41 41.678 C 96.326 41.831 96.25 41.989 96.179 42.149 C 95.741 43.143 95.528 44.298 95.542 45.61 C 95.545 46.215 95.608 46.815 95.729 47.406 C 95.843 47.952 96.019 48.481 96.252 48.982 C 96.713 49.96 97.344 50.719 98.14 51.261 C 98.939 51.802 99.83 52.063 100.815 52.046 C 101.628 52.031 102.397 51.807 103.12 51.375 C 103.678 51.046 104.185 50.63 104.624 50.142 C 104.732 50.02 104.836 49.892 104.934 49.761 Z" fill="#ffffff" style=""/>
    <path d="M 48.032 55.797 C 48.882 56.157 49.771 56.324 50.664 56.294 C 52.165 56.258 53.505 55.754 54.684 54.78 C 55.863 53.804 56.789 52.454 57.466 50.726 C 57.832 49.783 58.096 48.772 58.25 47.726 C 58.397 46.721 58.464 45.697 58.452 44.671 C 58.447 43.843 58.393 43.02 58.285 42.209 C 58.126 40.972 57.811 39.788 57.355 38.707 C 56.642 37.039 55.688 35.76 54.494 34.871 C 54.043 34.534 53.568 34.261 53.075 34.056 C 52.236 33.717 51.361 33.558 50.482 33.587 C 50.322 33.592 50.162 33.602 50.002 33.614 C 48.764 33.716 47.557 34.208 46.477 35.061 C 45.288 36.007 44.356 37.337 43.68 39.052 C 43.29 40.051 43.018 41.125 42.87 42.239 C 42.741 43.191 42.683 44.16 42.694 45.129 C 42.697 45.734 42.729 46.342 42.788 46.943 C 42.923 48.373 43.252 49.753 43.76 51.01 C 44.454 52.706 45.402 54.02 46.607 54.951 C 47.057 55.299 47.537 55.584 48.032 55.797 Z M 50.637 52.956 C 51.175 52.95 51.709 52.839 52.224 52.63 C 53.069 52.281 53.815 51.582 54.362 50.633 C 54.933 49.64 55.323 48.472 55.497 47.229 C 55.611 46.436 55.664 45.629 55.654 44.821 C 55.65 43.785 55.517 42.758 55.257 41.788 C 55.171 41.467 55.068 41.154 54.953 40.851 C 54.629 39.983 54.193 39.205 53.666 38.556 C 53.492 38.345 53.31 38.152 53.12 37.971 C 52.353 37.252 51.482 36.904 50.509 36.927 C 49.972 36.933 49.438 37.04 48.921 37.245 C 48.083 37.579 47.337 38.256 46.785 39.187 C 46.249 40.091 45.875 41.154 45.691 42.293 C 45.564 43.035 45.498 43.84 45.491 44.705 C 45.491 44.797 45.491 44.887 45.492 44.978 C 45.504 46.425 45.738 47.761 46.193 48.99 C 46.474 49.759 46.842 50.46 47.285 51.068 C 47.513 51.379 47.761 51.661 48.027 51.912 C 48.794 52.631 49.665 52.979 50.637 52.956 Z" fill="#ffffff" style=""/>
    <path d="M 116.883 54.347 L 114.32 54.4 L 114.146 35.58 L 116.627 35.53 L 116.655 38.678 C 117.178 37.655 117.85 36.79 118.67 36.084 C 119.277 35.57 119.965 35.231 120.686 35.094 C 120.992 35.032 121.302 34.999 121.61 34.993 C 122.096 34.977 122.581 35.03 123.057 35.151 C 123.693 35.317 124.246 35.618 124.712 36.048 C 124.958 36.276 125.181 36.54 125.376 36.835 C 126.173 38.03 126.599 39.603 126.657 41.551 C 126.66 41.66 126.662 41.767 126.664 41.874 L 126.776 54.143 L 124.211 54.197 L 124.101 42.289 C 124.088 40.938 123.827 39.857 123.316 39.048 C 122.881 38.342 122.222 37.913 121.516 37.871 C 121.413 37.862 121.311 37.859 121.209 37.861 C 120.519 37.879 119.844 38.139 119.263 38.612 C 119.081 38.756 118.906 38.914 118.739 39.088 C 117.967 39.888 117.312 40.825 116.769 41.897 L 116.883 54.347 Z" fill="#ffffff" style="transform-origin: 120.415px 45.401px;"/>
    <path d="M 76.773 53.065 L 77.936 50.081 C 78.243 50.395 78.575 50.666 78.926 50.894 C 79.249 51.107 79.603 51.296 79.986 51.464 C 79.99 51.466 79.993 51.467 79.996 51.468 C 80.823 51.829 81.703 51.999 82.641 51.976 C 82.963 51.972 83.285 51.941 83.605 51.888 C 84.268 51.777 84.804 51.56 85.209 51.237 C 85.232 51.219 85.255 51.204 85.278 51.184 C 85.453 51.037 85.613 50.862 85.752 50.663 C 86.019 50.284 86.162 49.793 86.154 49.291 C 86.153 49.004 86.117 48.72 86.048 48.447 C 85.993 48.232 85.913 48.027 85.814 47.842 C 85.592 47.426 85.187 47.022 84.601 46.63 C 84.07 46.274 83.328 45.897 82.372 45.5 C 82.268 45.457 82.164 45.413 82.058 45.371 C 81.591 45.183 81.129 44.966 80.678 44.718 C 80.236 44.474 79.839 44.212 79.487 43.934 C 79.178 43.694 78.887 43.419 78.616 43.11 C 78.084 42.488 77.717 41.672 77.57 40.774 C 77.49 40.316 77.448 39.847 77.448 39.376 C 77.43 38.025 77.87 36.725 78.654 35.795 C 78.781 35.635 78.916 35.481 79.057 35.338 C 79.615 34.775 80.252 34.354 80.934 34.093 C 81.706 33.784 82.592 33.618 83.593 33.594 C 84.616 33.569 85.531 33.68 86.336 33.926 C 86.35 33.931 86.365 33.936 86.378 33.939 C 86.817 34.077 87.25 34.243 87.674 34.442 C 87.98 34.584 88.28 34.748 88.573 34.93 L 87.816 37.863 C 87.447 37.602 87.062 37.378 86.662 37.197 C 86.407 37.078 86.147 36.975 85.884 36.886 C 85.426 36.733 84.955 36.633 84.48 36.587 C 84.152 36.555 83.822 36.541 83.49 36.55 C 82.407 36.577 81.586 36.874 81.026 37.438 C 80.873 37.591 80.733 37.762 80.606 37.949 C 80.462 38.168 80.355 38.393 80.288 38.623 C 80.226 38.831 80.195 39.049 80.198 39.27 C 80.199 39.797 80.373 40.298 80.676 40.659 C 80.738 40.733 80.799 40.804 80.866 40.87 C 80.995 40.994 81.133 41.105 81.276 41.202 C 81.752 41.53 82.452 41.878 83.378 42.241 C 83.399 42.247 83.42 42.256 83.442 42.265 C 85.511 43.08 86.956 44.004 87.777 45.034 C 88.543 45.992 88.986 47.284 89.02 48.649 C 89.024 48.747 89.027 48.846 89.027 48.945 C 89.041 50.716 88.505 52.143 87.419 53.222 C 87.378 53.261 87.335 53.302 87.295 53.341 C 86.695 53.89 86.022 54.304 85.31 54.56 C 84.506 54.863 83.593 55.026 82.572 55.051 C 81.342 55.08 80.231 54.909 79.238 54.541 C 78.828 54.39 78.424 54.204 78.033 53.985 C 77.559 53.716 77.139 53.409 76.773 53.065 Z" fill="#ffffff" style=""/>
  </g>
</svg>