<?xml version="1.0" encoding="utf-8"?>
<svg viewBox="0 0 150 68" fill="none" xmlns="http://www.w3.org/2000/svg">
  <defs>
    <clipPath id="clip0_652_254">
      <rect width="150" height="68" fill="white"/>
    </clipPath>
  </defs>
  <g clip-path="url(#clip0_652_254)">
    <path d="M105.673 23.0538L107.02 18.3201C106.224 18.8821 105.46 19.4846 104.73 20.1261L105.603 23.0538H105.673Z" fill="#FE330A"/>
    <path d="M117.093 23.0538L119.948 13.4793C118.107 13.665 116.321 14.0332 114.607 14.5669L117.022 23.0538H117.093Z" fill="#FE330A"/>
    <path d="M141.162 20.5365V25.6578H138.948V18.7037C135.961 16.4848 132.504 14.8694 128.755 14.0203C128.705 14.3601 128.661 14.7031 128.652 15.0648V25.6587H126.438V13.6002C125.22 13.4331 123.978 13.3398 122.713 13.3398C122.542 13.3398 122.373 13.3496 122.203 13.3528L118.251 25.6587H115.826L112.776 15.2181C111.622 15.6706 110.506 16.1969 109.435 16.7954L106.866 25.6587H104.441L103.147 21.6305C98.3721 26.5524 95.4274 33.2657 95.4274 40.6707C95.4274 55.7647 107.643 68.0008 122.712 68.0008C137.782 68.0008 149.998 55.7647 149.998 40.6707C149.998 32.7028 146.591 25.533 141.16 20.5373L141.162 20.5365Z" fill="#FE330A"/>
    <path d="M 87.403 21.818 L 87.403 2.648 L 90.326 2.648 L 90.326 21.518 C 90.325 21.839 90.345 22.16 90.388 22.478 C 90.432 22.794 90.498 23.08 90.59 23.336 C 90.694 23.643 90.853 23.928 91.057 24.176 C 91.439 24.627 91.968 24.919 92.546 24.998 C 92.725 25.027 92.906 25.04 93.087 25.039 C 93.499 25.039 93.905 24.99 94.306 24.891 C 94.648 24.805 94.947 24.708 95.202 24.598 C 95.245 24.58 95.287 24.561 95.328 24.541 L 96.043 26.967 C 95.873 27.043 95.699 27.112 95.522 27.172 C 95.35 27.231 95.165 27.287 94.967 27.34 C 94.845 27.373 94.721 27.403 94.598 27.432 C 94.26 27.509 93.917 27.563 93.573 27.593 C 93.281 27.619 92.99 27.632 92.697 27.631 C 92.163 27.634 91.63 27.572 91.109 27.447 C 90.728 27.354 90.357 27.221 90.002 27.049 C 89.288 26.703 88.689 26.153 88.272 25.467 C 88.212 25.371 88.155 25.272 88.102 25.173 C 87.888 24.769 87.728 24.339 87.624 23.893 C 87.527 23.492 87.462 23.056 87.429 22.586 C 87.412 22.33 87.403 22.073 87.403 21.818 Z" fill="#FE330A" style=""/>
    <path d="M 21.108 28.817 L 18.008 28.817 L 18.008 6.022 L 10.994 6.022 L 10.994 2.913 L 28.122 2.913 L 28.122 6.022 L 21.108 6.022 L 21.108 28.817 Z" fill="#FE330A" style=""/>
    <path d="M 40.536 13.178 L 40.536 11.891 L 43.477 11.891 L 43.477 23.965 C 43.476 24.133 43.488 24.3 43.513 24.467 C 43.593 24.963 43.802 25.302 44.14 25.482 C 44.582 25.717 45.067 25.834 45.593 25.834 L 44.911 27.979 C 44.397 27.985 43.883 27.936 43.382 27.835 C 41.989 27.539 41.112 26.791 40.751 25.589 C 40.425 25.972 40.051 26.325 39.635 26.639 C 39.28 26.909 38.905 27.157 38.509 27.382 C 37.968 27.687 37.366 27.906 36.733 28.027 C 36.25 28.123 35.728 28.178 35.166 28.191 C 35.079 28.193 34.992 28.194 34.905 28.194 C 33.35 28.194 31.94 27.857 30.673 27.183 C 29.588 26.601 28.678 25.811 28.014 24.877 C 27.882 24.694 27.758 24.508 27.642 24.318 C 27.183 23.553 26.864 22.731 26.699 21.883 C 26.571 21.245 26.509 20.598 26.512 19.951 C 26.506 19.096 26.627 18.245 26.87 17.417 C 27.051 16.809 27.31 16.22 27.642 15.66 C 28.395 14.394 29.436 13.387 30.762 12.642 C 31.961 11.973 33.347 11.591 34.777 11.536 C 34.963 11.527 35.15 11.523 35.335 11.523 C 35.913 11.52 36.489 11.571 37.055 11.674 C 37.467 11.749 37.87 11.858 38.259 11.999 C 38.796 12.191 39.31 12.426 39.796 12.701 C 40.053 12.847 40.301 13.007 40.536 13.178 Z M 40.249 23.75 L 40.249 15.2 C 39.603 14.812 38.892 14.5 38.115 14.266 C 37.338 14.031 36.519 13.913 35.658 13.913 C 35.053 13.909 34.451 13.987 33.875 14.145 C 33.433 14.267 33.013 14.443 32.627 14.664 C 31.886 15.093 31.27 15.662 30.827 16.326 C 30.733 16.464 30.646 16.605 30.565 16.748 C 30.063 17.636 29.812 18.674 29.812 19.859 C 29.809 20.403 29.872 20.946 30 21.479 C 30.12 21.973 30.31 22.453 30.565 22.908 C 31.067 23.796 31.76 24.491 32.645 24.991 C 33.53 25.492 34.522 25.742 35.622 25.742 C 36.531 25.742 37.392 25.554 38.205 25.175 C 38.83 24.889 39.401 24.522 39.897 24.087 C 40.02 23.979 40.137 23.867 40.249 23.75 Z" fill="#FE330A" style=""/>
    <path d="M 62.595 27.95 L 49.739 27.95 L 49.739 25.692 L 58.918 13.893 L 49.932 13.893 L 49.932 11.412 L 62.436 11.412 L 62.436 13.607 L 53.288 25.405 L 62.595 25.405 L 62.595 27.95 Z" fill="#FE330A" style=""/>
    <path d="M 83.25 20.88 L 69.981 20.88 C 70.053 21.385 70.192 21.883 70.397 22.365 C 70.685 23.034 71.099 23.606 71.636 24.079 C 71.702 24.138 71.77 24.194 71.841 24.25 C 72.601 24.848 73.573 25.242 74.621 25.377 C 75.038 25.435 75.463 25.463 75.887 25.462 C 76.408 25.463 76.927 25.439 77.446 25.391 C 77.916 25.349 78.381 25.278 78.84 25.181 C 79.715 24.994 80.553 24.752 81.356 24.457 L 82.121 26.734 C 81.606 26.917 81.077 27.078 80.54 27.214 C 80.088 27.329 79.63 27.43 79.168 27.517 C 78.556 27.63 77.937 27.711 77.312 27.759 C 76.705 27.805 76.094 27.828 75.485 27.827 C 74.532 27.834 73.582 27.734 72.663 27.53 C 71.259 27.216 69.995 26.586 69.015 25.713 C 68.12 24.906 67.47 23.94 67.119 22.893 C 66.873 22.203 66.719 21.448 66.659 20.628 C 66.638 20.347 66.627 20.067 66.627 19.786 C 66.623 19.008 66.724 18.232 66.931 17.473 C 67.104 16.848 67.362 16.24 67.703 15.662 C 68.154 14.882 68.774 14.172 69.532 13.568 C 69.894 13.281 70.289 13.022 70.71 12.795 C 71.826 12.194 73.114 11.84 74.45 11.767 C 74.698 11.752 74.946 11.744 75.195 11.744 C 75.864 11.741 76.532 11.79 77.188 11.89 C 78.001 12.02 78.732 12.232 79.381 12.531 C 79.501 12.586 79.618 12.644 79.733 12.705 C 80.935 13.346 81.841 14.207 82.449 15.292 C 82.959 16.213 83.259 17.2 83.332 18.208 C 83.352 18.429 83.36 18.648 83.36 18.869 C 83.361 19.529 83.326 20.191 83.255 20.85 C 83.254 20.86 83.252 20.869 83.25 20.88 Z M 69.945 18.721 L 80.334 18.721 C 80.334 17.224 79.872 16.071 78.949 15.263 C 78.275 14.677 77.385 14.286 76.412 14.145 C 75.986 14.081 75.555 14.048 75.121 14.051 C 74.484 14.045 73.851 14.138 73.257 14.327 C 72.636 14.533 72.077 14.847 71.621 15.247 C 71.162 15.653 70.8 16.122 70.549 16.634 C 70.249 17.232 70.046 17.928 69.945 18.721 Z" fill="#FE330A" style=""/>
    <path d="M117.093 23.0538L119.948 13.4793C118.107 13.665 116.321 14.0332 114.607 14.5669L117.022 23.0538H117.093Z" fill="#FE330A"/>
    <path d="M105.673 23.0538L107.02 18.3201C106.224 18.8821 105.46 19.4846 104.73 20.1261L105.603 23.0538H105.673Z" fill="#FE330A"/>
    <path d="M 139.001 18.774 L 138.205 23.156 L 138.948 25.658 L 138.948 18.704 C 135.961 16.485 132.504 14.869 128.755 14.02 C 128.705 14.36 128.661 14.703 128.652 15.065 L 128.652 25.659 L 128.914 13.986 L 126.438 13.6 C 125.22 13.433 123.978 13.34 122.713 13.34 C 122.542 13.34 122.373 13.35 122.203 13.353 L 119.616 13.491 L 115.826 25.659 C 121.542 10.244 112.776 15.218 112.776 15.218 C 111.622 15.671 110.506 16.197 109.435 16.795 L 106.866 18.324 L 107.796 23.1 C 111.26 13.228 103.147 21.631 103.147 21.631 C 98.372 26.552 95.427 33.266 95.427 40.671 C 95.427 55.765 107.643 68.001 122.712 68.001 C 137.782 68.001 149.998 55.765 149.998 40.671 C 149.998 32.703 146.591 25.533 141.16 20.537 L 139.001 18.774 Z" style="fill: rgb(254, 51, 10);"/>
    <path d="M 5.72 61.039 L 2.36 61.039 L 2.36 32.067 L 5.72 32.067 L 5.72 44.442 L 17.92 44.442 L 17.92 32.067 L 21.28 32.067 L 21.28 61.039 L 17.92 61.039 L 17.92 47.836 L 5.72 47.836 L 5.72 61.039 Z" fill="#0B0500" style=""/>
    <path d="M 40.674 59.282 L 42.328 56.604 C 42.752 56.895 43.211 57.148 43.697 57.362 C 44.145 57.562 44.636 57.742 45.168 57.903 C 45.172 57.905 45.177 57.906 45.181 57.907 C 46.329 58.252 47.555 58.425 48.861 58.425 C 49.31 58.427 49.758 58.407 50.205 58.366 C 51.129 58.28 51.878 58.095 52.447 57.812 C 52.479 57.796 52.511 57.782 52.542 57.765 C 52.789 57.636 53.014 57.48 53.209 57.303 C 53.584 56.965 53.789 56.523 53.783 56.068 C 53.785 55.808 53.739 55.55 53.646 55.301 C 53.571 55.105 53.463 54.918 53.326 54.748 C 53.021 54.366 52.462 53.991 51.649 53.622 C 50.915 53.289 49.884 52.931 48.557 52.55 C 48.412 52.508 48.267 52.466 48.12 52.426 C 47.471 52.245 46.831 52.038 46.206 51.804 C 45.592 51.572 45.041 51.326 44.555 51.067 C 44.127 50.842 43.724 50.587 43.351 50.301 C 42.616 49.725 42.114 48.978 41.918 48.16 C 41.811 47.743 41.759 47.317 41.763 46.891 C 41.754 45.666 42.38 44.497 43.482 43.671 C 43.663 43.529 43.852 43.394 44.049 43.267 C 44.832 42.769 45.725 42.4 46.677 42.179 C 47.757 41.917 48.993 41.785 50.386 41.785 C 51.813 41.785 53.086 41.906 54.205 42.147 C 54.224 42.152 54.244 42.156 54.262 42.16 C 54.873 42.294 55.474 42.455 56.063 42.644 C 56.488 42.78 56.904 42.934 57.31 43.106 L 56.223 45.748 C 55.712 45.503 55.177 45.291 54.624 45.118 C 54.27 45.005 53.908 44.907 53.543 44.819 C 52.905 44.671 52.251 44.57 51.591 44.518 C 51.133 44.481 50.673 44.462 50.211 44.463 C 48.702 44.463 47.555 44.713 46.77 45.213 C 46.555 45.348 46.358 45.5 46.179 45.667 C 45.976 45.862 45.825 46.064 45.728 46.271 C 45.64 46.457 45.595 46.655 45.595 46.855 C 45.592 47.333 45.828 47.791 46.246 48.124 C 46.33 48.193 46.417 48.259 46.509 48.319 C 46.688 48.435 46.878 48.539 47.076 48.63 C 47.736 48.939 48.708 49.268 49.993 49.617 C 50.023 49.624 50.052 49.632 50.082 49.641 C 52.956 50.426 54.959 51.295 56.092 52.247 C 57.148 53.131 57.752 54.312 57.783 55.549 C 57.788 55.638 57.79 55.728 57.79 55.818 C 57.79 57.424 57.027 58.705 55.503 59.659 C 55.446 59.694 55.387 59.73 55.329 59.764 C 54.487 60.249 53.546 60.609 52.552 60.825 C 51.427 61.082 50.153 61.21 48.731 61.21 C 47.017 61.21 45.471 61.031 44.092 60.674 C 43.522 60.529 42.962 60.351 42.42 60.145 C 41.762 59.89 41.18 59.603 40.674 59.282 Z" fill="#0B0500" style=""/>
    <path d="M 89.97 44.591 L 89.97 43.163 L 92.942 43.163 L 92.942 56.558 C 92.941 56.744 92.953 56.93 92.979 57.114 C 93.059 57.667 93.271 58.042 93.613 58.241 C 94.06 58.502 94.549 58.632 95.081 58.632 L 94.393 61.012 C 93.872 61.017 93.352 60.963 92.846 60.851 C 91.439 60.523 90.552 59.693 90.188 58.361 C 89.858 58.786 89.479 59.176 89.06 59.524 C 88.701 59.825 88.321 60.099 87.922 60.349 C 87.375 60.688 86.766 60.93 86.126 61.064 C 85.639 61.172 85.11 61.231 84.542 61.246 C 84.455 61.249 84.367 61.25 84.278 61.25 C 82.708 61.25 81.282 60.875 80.002 60.128 C 78.906 59.483 77.986 58.606 77.313 57.57 C 77.18 57.367 77.055 57.161 76.938 56.95 C 76.473 56.101 76.152 55.191 75.984 54.249 C 75.856 53.541 75.793 52.823 75.796 52.105 C 75.79 51.157 75.911 50.213 76.158 49.294 C 76.341 48.619 76.603 47.965 76.938 47.346 C 77.7 45.94 78.751 44.825 80.092 43.996 C 81.303 43.255 82.704 42.832 84.15 42.77 C 84.337 42.76 84.526 42.756 84.714 42.756 C 85.297 42.753 85.88 42.809 86.452 42.922 C 86.868 43.007 87.276 43.127 87.668 43.283 C 88.211 43.497 88.731 43.758 89.222 44.062 C 89.481 44.224 89.732 44.402 89.97 44.591 Z M 89.68 56.32 L 89.68 46.835 C 89.028 46.405 88.308 46.06 87.522 45.798 C 86.738 45.537 85.91 45.407 85.039 45.407 C 84.429 45.403 83.82 45.49 83.239 45.664 C 82.791 45.8 82.366 45.994 81.976 46.241 C 81.228 46.716 80.605 47.347 80.157 48.085 C 80.062 48.237 79.974 48.393 79.892 48.552 C 79.385 49.538 79.131 50.689 79.131 52.002 C 79.127 52.607 79.191 53.208 79.321 53.8 C 79.443 54.348 79.635 54.88 79.892 55.386 C 80.4 56.371 81.102 57.142 81.995 57.698 C 82.889 58.253 83.892 58.53 85.004 58.53 C 85.922 58.53 86.792 58.32 87.613 57.901 C 88.247 57.582 88.823 57.175 89.325 56.694 C 89.448 56.575 89.567 56.449 89.68 56.32 Z" fill="#0B0500" style=""/>
    <path d="M 28.404 60.999 C 29.454 61.312 30.553 61.467 31.659 61.46 C 33.519 61.46 35.184 61.07 36.654 60.29 C 38.123 59.508 39.285 58.413 40.14 57.001 C 40.602 56.23 40.939 55.402 41.14 54.542 C 41.332 53.715 41.426 52.872 41.421 52.026 C 41.424 51.343 41.364 50.663 41.238 49.991 C 41.054 48.969 40.676 47.986 40.122 47.085 C 39.254 45.695 38.086 44.622 36.616 43.865 C 36.06 43.578 35.474 43.344 34.866 43.166 C 33.829 42.869 32.747 42.721 31.659 42.728 C 31.461 42.728 31.262 42.733 31.064 42.741 C 29.529 42.8 28.029 43.183 26.684 43.865 C 25.202 44.622 24.034 45.701 23.179 47.102 C 22.687 47.918 22.338 48.799 22.144 49.715 C 21.975 50.498 21.893 51.295 21.898 52.095 C 21.896 52.595 21.93 53.096 21.997 53.593 C 22.15 54.775 22.544 55.92 23.16 56.967 C 24.002 58.379 25.164 59.481 26.647 60.273 C 27.202 60.569 27.792 60.813 28.404 60.999 Z M 31.659 58.706 C 32.325 58.711 32.988 58.631 33.629 58.468 C 34.678 58.197 35.609 57.636 36.295 56.863 C 37.014 56.055 37.507 55.099 37.735 54.077 C 37.885 53.426 37.958 52.761 37.954 52.095 C 37.96 51.24 37.805 50.391 37.492 49.585 C 37.388 49.318 37.265 49.059 37.125 48.806 C 36.733 48.084 36.2 47.434 35.553 46.888 C 35.34 46.711 35.117 46.547 34.882 46.395 C 33.94 45.787 32.865 45.483 31.659 45.483 C 30.994 45.477 30.332 45.555 29.689 45.714 C 28.648 45.973 27.717 46.517 27.024 47.274 C 26.351 48.01 25.878 48.879 25.639 49.814 C 25.474 50.423 25.384 51.086 25.367 51.801 C 25.366 51.877 25.365 51.951 25.365 52.026 C 25.365 53.219 25.642 54.326 26.194 55.349 C 26.535 55.988 26.983 56.573 27.525 57.084 C 27.805 57.345 28.11 57.582 28.437 57.794 C 29.379 58.402 30.454 58.706 31.659 58.706 Z" fill="#0B0500" style=""/>
    <path d="M 58.259 59.085 L 59.913 56.407 C 60.337 56.698 60.796 56.951 61.282 57.165 C 61.73 57.365 62.221 57.545 62.753 57.706 C 62.757 57.708 62.762 57.709 62.766 57.71 C 63.914 58.055 65.14 58.228 66.446 58.228 C 66.895 58.23 67.343 58.21 67.79 58.169 C 68.714 58.083 69.463 57.898 70.032 57.615 C 70.064 57.599 70.096 57.585 70.127 57.568 C 70.374 57.439 70.599 57.283 70.794 57.106 C 71.169 56.768 71.374 56.326 71.368 55.871 C 71.37 55.611 71.324 55.353 71.231 55.104 C 71.156 54.908 71.048 54.721 70.911 54.551 C 70.606 54.169 70.047 53.794 69.234 53.425 C 68.5 53.092 67.469 52.734 66.142 52.353 C 65.997 52.311 65.852 52.269 65.705 52.229 C 65.056 52.048 64.416 51.841 63.791 51.607 C 63.177 51.375 62.626 51.129 62.14 50.87 C 61.712 50.645 61.309 50.39 60.936 50.104 C 60.201 49.528 59.699 48.781 59.503 47.963 C 59.396 47.546 59.344 47.12 59.348 46.694 C 59.339 45.469 59.965 44.3 61.067 43.474 C 61.248 43.332 61.437 43.197 61.634 43.07 C 62.417 42.572 63.31 42.203 64.262 41.982 C 65.342 41.72 66.578 41.588 67.971 41.588 C 69.398 41.588 70.671 41.709 71.79 41.95 C 71.809 41.955 71.829 41.959 71.847 41.963 C 72.458 42.097 73.059 42.258 73.648 42.447 C 74.073 42.583 74.489 42.737 74.895 42.909 L 73.808 45.551 C 73.297 45.306 72.762 45.094 72.209 44.921 C 71.855 44.808 71.493 44.71 71.128 44.622 C 70.49 44.474 69.836 44.373 69.176 44.321 C 68.718 44.284 68.258 44.265 67.796 44.266 C 66.287 44.266 65.14 44.516 64.355 45.016 C 64.14 45.151 63.943 45.303 63.764 45.47 C 63.561 45.665 63.41 45.867 63.313 46.074 C 63.225 46.26 63.18 46.458 63.18 46.658 C 63.177 47.136 63.413 47.594 63.831 47.927 C 63.915 47.996 64.002 48.062 64.094 48.122 C 64.273 48.238 64.463 48.342 64.661 48.433 C 65.321 48.742 66.293 49.071 67.578 49.42 C 67.608 49.427 67.637 49.435 67.667 49.444 C 70.541 50.229 72.544 51.098 73.677 52.05 C 74.733 52.934 75.337 54.115 75.368 55.352 C 75.373 55.441 75.375 55.531 75.375 55.621 C 75.375 57.227 74.612 58.508 73.088 59.462 C 73.031 59.497 72.972 59.533 72.914 59.567 C 72.072 60.052 71.131 60.412 70.137 60.628 C 69.012 60.885 67.738 61.013 66.316 61.013 C 64.602 61.013 63.056 60.834 61.677 60.477 C 61.107 60.332 60.547 60.154 60.005 59.948 C 59.347 59.693 58.765 59.406 58.259 59.085 Z" fill="#0B0500" style=""/>
    <path d="M 100.891 61.641 L 97.551 61.641 L 97.551 42.82 L 100.781 42.82 L 100.781 45.969 C 101.474 44.956 102.358 44.105 103.435 43.417 C 104.232 42.915 105.132 42.59 106.072 42.468 C 106.472 42.412 106.874 42.385 107.276 42.386 C 107.909 42.38 108.54 42.443 109.158 42.573 C 109.985 42.753 110.7 43.065 111.302 43.504 C 111.621 43.737 111.908 44.006 112.158 44.305 C 113.18 45.517 113.716 47.098 113.769 49.047 C 113.772 49.156 113.773 49.263 113.773 49.37 L 113.773 61.641 L 110.432 61.641 L 110.432 49.733 C 110.432 48.381 110.104 47.295 109.448 46.475 C 108.89 45.761 108.038 45.318 107.119 45.262 C 106.986 45.25 106.852 45.245 106.72 45.245 C 105.822 45.249 104.94 45.495 104.177 45.956 C 103.938 46.097 103.708 46.251 103.49 46.421 C 102.475 47.205 101.61 48.128 100.891 49.19 L 100.891 61.641 Z" fill="#ffffff" style="transform-box: fill-box; transform-origin: 50% 50%;"/>
  </g>
</svg>