<?xml version="1.0" encoding="utf-8"?>
<svg viewBox="38.451 46.154 62.606 12.473" fill="none" xmlns="http://www.w3.org/2000/svg">
  <defs>
    <clipPath id="clip0_652_254">
      <rect width="150" height="68" fill="white"/>
    </clipPath>
  </defs>
  <g clip-path="url(#clip0_652_254)" style="" transform="matrix(0.4001719951629638, 0, 0, 0.40662002563476557, 40.1674314762269, 35.69177680748367)">
    <path d="M 23.953 55.877 L 20.594 55.93 L 20.246 26.96 L 23.605 26.907 L 23.754 39.281 L 35.953 39.088 L 35.805 26.715 L 39.164 26.662 L 39.511 55.631 L 36.152 55.684 L 35.993 42.482 L 23.795 42.674 L 23.953 55.877 Z" fill="#000000" style=""/>
    <path d="M 58.883 53.568 L 60.504 50.863 C 60.932 51.148 61.394 51.394 61.883 51.6 C 62.333 51.793 62.826 51.965 63.36 52.117 C 63.364 52.119 63.369 52.12 63.373 52.121 C 64.525 52.448 65.753 52.602 67.059 52.581 C 67.508 52.577 67.956 52.549 68.401 52.501 C 69.324 52.401 70.071 52.204 70.637 51.911 C 70.669 51.895 70.7 51.881 70.732 51.863 C 70.976 51.73 71.2 51.571 71.393 51.391 C 71.764 51.047 71.963 50.602 71.952 50.147 C 71.951 49.887 71.902 49.63 71.805 49.382 C 71.728 49.187 71.618 49.002 71.479 48.834 C 71.17 48.457 70.606 48.091 69.789 47.735 C 69.05 47.413 68.016 47.071 66.684 46.711 C 66.539 46.672 66.394 46.632 66.246 46.594 C 65.595 46.424 64.952 46.227 64.324 46.002 C 63.708 45.781 63.154 45.544 62.665 45.292 C 62.234 45.074 61.828 44.825 61.452 44.545 C 60.71 43.981 60.199 43.241 59.994 42.427 C 59.882 42.012 59.824 41.587 59.823 41.16 C 59.799 39.936 60.412 38.757 61.503 37.914 C 61.682 37.769 61.87 37.63 62.065 37.5 C 62.842 36.99 63.731 36.608 64.68 36.372 C 65.757 36.092 66.991 35.941 68.384 35.919 C 69.811 35.897 71.085 35.997 72.206 36.22 C 72.226 36.225 72.246 36.229 72.264 36.232 C 72.876 36.357 73.48 36.508 74.07 36.688 C 74.497 36.817 74.915 36.965 75.323 37.13 L 74.268 39.789 C 73.754 39.552 73.217 39.349 72.661 39.185 C 72.306 39.077 71.943 38.984 71.577 38.903 C 70.938 38.765 70.282 38.674 69.621 38.632 C 69.163 38.603 68.703 38.591 68.241 38.599 C 66.732 38.623 65.588 38.892 64.809 39.404 C 64.596 39.542 64.401 39.697 64.223 39.867 C 64.023 40.065 63.875 40.269 63.78 40.478 C 63.694 40.666 63.651 40.864 63.655 41.064 C 63.657 41.542 63.898 41.996 64.321 42.323 C 64.406 42.39 64.493 42.455 64.586 42.514 C 64.766 42.627 64.958 42.727 65.156 42.815 C 65.82 43.113 66.796 43.428 68.085 43.757 C 68.115 43.763 68.144 43.771 68.174 43.779 C 71.057 44.518 73.07 45.355 74.215 46.289 C 75.281 47.157 75.899 48.328 75.945 49.565 C 75.951 49.654 75.955 49.744 75.956 49.834 C 75.975 51.439 75.228 52.732 73.715 53.71 C 73.658 53.746 73.599 53.783 73.542 53.818 C 72.706 54.316 71.769 54.691 70.778 54.923 C 69.657 55.198 68.384 55.346 66.962 55.368 C 65.248 55.395 63.7 55.24 62.317 54.906 C 61.746 54.769 61.183 54.601 60.639 54.402 C 59.978 54.158 59.393 53.88 58.883 53.568 Z" fill="#ffffff" style=""/>
    <path d="M 107.998 38.099 L 107.98 36.671 L 110.953 36.624 L 111.113 50.018 C 111.115 50.204 111.128 50.39 111.156 50.574 C 111.244 51.125 111.46 51.497 111.804 51.691 C 112.255 51.944 112.745 52.067 113.277 52.058 L 112.618 54.449 C 112.097 54.462 111.576 54.416 111.068 54.312 C 109.658 54.007 108.761 53.191 108.381 51.865 C 108.056 52.294 107.682 52.691 107.267 53.045 C 106.912 53.352 106.535 53.632 106.139 53.888 C 105.596 54.236 104.99 54.487 104.352 54.631 C 103.866 54.747 103.338 54.814 102.77 54.839 C 102.683 54.843 102.595 54.845 102.506 54.847 C 100.936 54.871 99.506 54.519 98.217 53.793 C 97.114 53.164 96.183 52.302 95.498 51.277 C 95.362 51.076 95.235 50.872 95.115 50.663 C 94.64 49.821 94.308 48.916 94.129 47.977 C 93.993 47.271 93.921 46.555 93.915 45.836 C 93.897 44.889 94.008 43.942 94.244 43.02 C 94.418 42.342 94.673 41.684 95 41.06 C 95.745 39.642 96.783 38.51 98.114 37.661 C 99.315 36.9 100.711 36.456 102.157 36.371 C 102.344 36.357 102.533 36.351 102.721 36.347 C 103.303 36.335 103.887 36.382 104.46 36.486 C 104.877 36.564 105.286 36.678 105.68 36.827 C 106.226 37.034 106.749 37.286 107.244 37.582 C 107.504 37.74 107.758 37.914 107.998 38.099 Z M 107.848 49.831 L 107.735 40.348 C 107.077 39.928 106.353 39.594 105.564 39.345 C 104.778 39.097 103.948 38.979 103.077 38.993 C 102.467 38.998 101.859 39.095 101.281 39.278 C 100.834 39.422 100.411 39.622 100.025 39.875 C 99.282 40.362 98.667 41.003 98.228 41.748 C 98.134 41.901 98.048 42.059 97.968 42.219 C 97.473 43.213 97.233 44.368 97.249 45.68 C 97.252 46.285 97.323 46.885 97.46 47.476 C 97.589 48.022 97.787 48.551 98.05 49.052 C 98.57 50.03 99.282 50.789 100.181 51.331 C 101.082 51.872 102.088 52.133 103.199 52.116 C 104.117 52.101 104.985 51.877 105.801 51.445 C 106.43 51.116 107.002 50.7 107.498 50.212 C 107.62 50.09 107.737 49.962 107.848 49.831 Z" fill="#ffffff" style=""/>
    <path d="M 46.635 55.478 C 47.688 55.775 48.789 55.912 49.895 55.888 C 51.755 55.858 53.415 55.442 54.875 54.639 C 56.335 53.834 57.483 52.72 58.321 51.295 C 58.774 50.517 59.101 49.683 59.292 48.82 C 59.474 47.991 59.558 47.146 59.543 46.3 C 59.537 45.617 59.469 44.938 59.336 44.269 C 59.139 43.249 58.749 42.272 58.184 41.38 C 57.3 40.004 56.119 38.949 54.64 38.216 C 54.081 37.938 53.492 37.713 52.882 37.544 C 51.842 37.264 50.758 37.133 49.67 37.157 C 49.472 37.161 49.273 37.169 49.075 37.179 C 47.541 37.263 46.046 37.669 44.709 38.373 C 43.236 39.153 42.081 40.25 41.243 41.665 C 40.761 42.489 40.423 43.375 40.24 44.294 C 40.08 45.079 40.008 45.878 40.022 46.678 C 40.026 47.177 40.066 47.678 40.139 48.174 C 40.306 49.354 40.714 50.492 41.343 51.529 C 42.202 52.928 43.377 54.012 44.869 54.78 C 45.427 55.067 46.021 55.302 46.635 55.478 Z M 49.862 53.134 C 50.528 53.129 51.19 53.038 51.828 52.865 C 52.874 52.577 53.799 52.001 54.476 51.218 C 55.184 50.399 55.666 49.435 55.882 48.41 C 56.023 47.756 56.089 47.09 56.077 46.424 C 56.072 45.569 55.907 44.722 55.585 43.922 C 55.478 43.657 55.351 43.399 55.208 43.149 C 54.807 42.433 54.267 41.791 53.614 41.256 C 53.398 41.082 53.173 40.922 52.937 40.773 C 51.987 40.18 50.909 39.893 49.703 39.912 C 49.038 39.917 48.377 40.005 47.736 40.174 C 46.698 40.45 45.774 41.008 45.09 41.776 C 44.426 42.522 43.963 43.399 43.735 44.338 C 43.578 44.95 43.496 45.614 43.487 46.328 C 43.487 46.404 43.487 46.478 43.488 46.553 C 43.503 47.747 43.793 48.849 44.356 49.863 C 44.705 50.497 45.161 51.075 45.709 51.577 C 45.992 51.833 46.299 52.066 46.629 52.273 C 47.579 52.866 48.657 53.153 49.862 53.134 Z" fill="#000000" style=""/>
    <path d="M 76.464 53.093 L 78.085 50.389 C 78.513 50.673 78.975 50.919 79.463 51.125 C 79.914 51.318 80.406 51.49 80.941 51.643 C 80.945 51.645 80.95 51.645 80.954 51.646 C 82.106 51.974 83.333 52.127 84.639 52.106 C 85.089 52.102 85.536 52.074 85.983 52.026 C 86.906 51.926 87.652 51.729 88.218 51.436 C 88.25 51.42 88.282 51.406 88.312 51.388 C 88.558 51.256 88.781 51.096 88.974 50.916 C 89.344 50.572 89.545 50.127 89.533 49.672 C 89.532 49.412 89.482 49.155 89.387 48.907 C 89.31 48.713 89.199 48.527 89.06 48.359 C 88.75 47.983 88.187 47.616 87.37 47.26 C 86.632 46.938 85.596 46.597 84.265 46.236 C 84.119 46.198 83.974 46.158 83.827 46.12 C 83.175 45.949 82.533 45.752 81.906 45.528 C 81.289 45.306 80.735 45.069 80.245 44.818 C 79.815 44.599 79.409 44.35 79.032 44.07 C 78.291 43.506 77.78 42.767 77.574 41.952 C 77.462 41.537 77.405 41.112 77.404 40.686 C 77.381 39.461 77.992 38.282 79.084 37.439 C 79.264 37.294 79.451 37.156 79.646 37.026 C 80.423 36.516 81.311 36.133 82.26 35.897 C 83.338 35.618 84.572 35.466 85.965 35.444 C 87.391 35.422 88.666 35.523 89.788 35.745 C 89.807 35.751 89.827 35.754 89.845 35.758 C 90.458 35.882 91.06 36.033 91.652 36.213 C 92.079 36.342 92.496 36.49 92.904 36.655 L 91.848 39.315 C 91.335 39.077 90.797 38.874 90.243 38.71 C 89.887 38.602 89.524 38.511 89.158 38.428 C 88.518 38.29 87.863 38.2 87.203 38.157 C 86.744 38.128 86.283 38.116 85.822 38.124 C 84.313 38.148 83.169 38.417 82.39 38.929 C 82.177 39.067 81.982 39.222 81.805 39.392 C 81.604 39.59 81.455 39.795 81.361 40.003 C 81.276 40.191 81.233 40.389 81.235 40.589 C 81.238 41.068 81.48 41.521 81.901 41.848 C 81.986 41.915 82.074 41.98 82.166 42.039 C 82.347 42.152 82.538 42.252 82.738 42.34 C 83.401 42.639 84.376 42.953 85.666 43.282 C 85.696 43.288 85.725 43.296 85.755 43.304 C 88.638 44.044 90.652 44.881 91.796 45.814 C 92.862 46.682 93.48 47.853 93.526 49.09 C 93.533 49.179 93.535 49.269 93.536 49.359 C 93.556 50.965 92.808 52.257 91.296 53.235 C 91.239 53.271 91.181 53.308 91.123 53.343 C 90.286 53.841 89.351 54.217 88.36 54.448 C 87.237 54.723 85.965 54.871 84.543 54.893 C 82.829 54.92 81.282 54.766 79.898 54.431 C 79.326 54.295 78.765 54.126 78.22 53.929 C 77.559 53.683 76.973 53.405 76.464 53.093 Z" fill="#ffffff" style=""/>
    <path d="M 119.122 54.975 L 115.783 55.028 L 115.557 36.208 L 118.787 36.158 L 118.824 39.306 C 119.505 38.283 120.379 37.418 121.448 36.712 C 122.238 36.198 123.134 35.859 124.073 35.722 C 124.472 35.66 124.874 35.627 125.276 35.621 C 125.909 35.605 126.54 35.658 127.16 35.779 C 127.988 35.945 128.708 36.246 129.315 36.676 C 129.636 36.904 129.926 37.168 130.18 37.463 C 131.217 38.658 131.771 40.231 131.848 42.179 C 131.852 42.288 131.854 42.395 131.856 42.502 L 132.003 54.771 L 128.663 54.825 L 128.519 42.917 C 128.503 41.566 128.163 40.485 127.497 39.676 C 126.93 38.97 126.073 38.541 125.153 38.499 C 125.02 38.49 124.886 38.487 124.754 38.489 C 123.856 38.507 122.977 38.767 122.22 39.24 C 121.983 39.384 121.755 39.542 121.538 39.716 C 120.533 40.516 119.679 41.453 118.973 42.525 L 119.122 54.975 Z" fill="#000000" style="transform-origin: 123.72px 46.029px;"/>
  </g>
</svg>